<?xml version="1.0" standalone="no"?>
<!DOCTYPE svg PUBLIC "-//W3C//DTD SVG 1.1//EN" "http://www.w3.org/Graphics/SVG/1.1/DTD/svg11.dtd">
<svg width="100%" height="100%" viewBox="0 0 48 48" version="1.1" xmlns="http://www.w3.org/2000/svg" xmlns:xlink="http://www.w3.org/1999/xlink" xml:space="preserve" style="fill-rule:evenodd;clip-rule:evenodd;stroke-linejoin:round;stroke-miterlimit:1.41421;">
    <g id="Skype" transform="matrix(0.107278,0,0,0.107278,0.92853,0.928583)">
        <path d="M412.164,246.198C413.769,236.043 414.614,225.654 414.614,215.05C414.614,104.835 325.272,15.495 215.054,15.495C204.478,15.495 194.059,16.366 183.913,17.953C165.534,6.581 143.842,0 120.595,0C53.996,0 0.005,53.984 0.005,120.59C0.005,143.832 6.59,165.506 17.957,183.922C16.384,194.094 15.518,204.45 15.518,215.054C15.518,325.277 104.858,414.59 215.05,414.59C225.635,414.59 236.057,413.774 246.202,412.173C264.6,423.523 286.274,430.122 309.516,430.122C376.133,430.122 430.118,376.124 430.118,309.52C430.123,286.269 423.542,264.6 412.164,246.198ZM309.801,305.81C301.359,317.963 288.958,327.46 272.754,334.289C256.517,341.136 237.326,344.543 215.164,344.543C188.602,344.543 166.61,339.895 149.251,330.509C136.946,323.788 126.938,314.772 119.244,303.529C111.534,292.277 107.625,281.258 107.625,270.514C107.625,264.176 110.042,258.664 114.747,254.17C119.501,249.643 125.624,247.374 132.851,247.374C138.771,247.374 143.856,249.157 147.996,252.69C152.105,256.222 155.552,261.357 158.371,268.133C161.75,275.983 165.42,282.545 169.325,287.781C173.206,292.952 178.668,297.269 185.742,300.648C192.738,304.036 202.049,305.73 213.7,305.73C229.645,305.73 242.531,302.281 252.393,295.477C262.305,288.611 267.066,280.257 267.066,270.163C267.066,262.112 264.499,255.718 259.235,250.733C253.923,245.683 247.063,241.837 238.55,239.154C230.004,236.443 218.53,233.568 204.151,230.539C184.843,226.325 168.695,221.42 155.618,215.787C142.524,210.133 132.096,202.404 124.367,192.641C116.622,182.782 112.76,170.528 112.76,156.014C112.76,142.174 116.837,129.797 124.999,119.025C133.157,108.223 144.96,99.955 160.35,94.196C175.686,88.439 193.741,85.559 214.425,85.559C230.966,85.559 245.274,87.473 257.385,91.281C269.463,95.117 279.531,100.179 287.581,106.531C295.58,112.869 301.466,119.554 305.194,126.569C308.919,133.605 310.795,140.477 310.795,147.183C310.795,153.418 308.378,159.073 303.668,164.029C298.959,168.992 292.935,171.522 285.9,171.499C279.558,171.499 274.583,170.036 271.133,166.939C267.773,163.943 264.244,159.173 260.427,152.525C255.602,143.249 249.823,136.022 243.103,130.853C236.56,125.78 225.765,123.139 210.744,123.171C196.846,123.171 185.726,126.011 177.333,131.565C168.888,137.208 164.851,143.755 164.832,151.426C164.846,156.233 166.228,160.286 169.009,163.752C171.833,167.25 175.762,170.281 180.812,172.836C185.864,175.431 191.003,177.438 196.167,178.882C201.392,180.363 210.061,182.504 222.111,185.339C237.223,188.596 250.93,192.235 263.247,196.201C275.54,200.187 286.031,204.994 294.698,210.721C303.434,216.431 310.262,223.711 315.136,232.504C320.045,241.311 322.49,252.068 322.49,264.726C322.509,279.968 318.263,293.676 309.801,305.81Z" style="fill:url(#_Linear1);fill-rule:nonzero;"/>
    </g>
    <defs>
        <linearGradient id="_Linear1" x1="0" y1="0" x2="1" y2="0" gradientUnits="userSpaceOnUse" gradientTransform="matrix(2.63374e-14,-430.122,430.122,2.63374e-14,215.062,430.122)"><stop offset="0%" style="stop-color:rgb(0,136,212);stop-opacity:1"/><stop offset="100%" style="stop-color:rgb(123,219,255);stop-opacity:1"/></linearGradient>
    </defs>
</svg>
